<svg xmlns="http://www.w3.org/2000/svg" version="1.1" xmlns:xlink="http://www.w3.org/1999/xlink" xmlns:svgjs="http://svgjs.dev/svgjs" width="1000" height="1000" viewBox="0 0 1000 1000"><rect width="1000" height="1000" fill="#50a060"></rect><g transform="matrix(0.7,0,0,0.7,150,106.25)"><svg viewBox="0 0 320 360" data-background-color="#50a060" preserveAspectRatio="xMidYMid meet" height="1125" width="1000" xmlns="http://www.w3.org/2000/svg" xmlns:xlink="http://www.w3.org/1999/xlink"><g id="tight-bounds" transform="matrix(1,0,0,1,0,0)"><svg viewBox="0 0 320 360" height="360" width="320"><g><svg></svg></g><g><svg viewBox="0 0 320 360" height="360" width="320"><g><path xmlns="http://www.w3.org/2000/svg" d="M219.58 41.008c0.707 0 6.365 2.829 9.547 3.89-1.061 0.354-3.536-0.707-6.365-1.768 0.707 0 2.122 0.354 3.536 1.06-0.707-0.707-6.011-2.475-6.718-3.182M166.895 30.047c1.061-0.354 13.436 1.414 19.094 1.768 0.354-0.354-0.707-0.354-2.122-0.707 1.768-0.354 5.304 0.707 7.779 1.06-7.425 0.354-15.558-1.768-22.629-1.06-2.475 0-0.707-0.707-2.122-1.061M156.641 30.047c6.365 0 11.315 0 2.121 0.707-1.061-0.354-2.475-0.354-2.121-0.707M256.707 59.395c0.707 0 3.536 3.182 4.95 4.243-0.354 0.354-3.182-2.475-4.596-3.536 0.354 0.354 0 0-0.354-0.707M249.635 54.798c-2.829-2.475-3.889-2.475-4.243-3.889 2.475 1.414 4.243 2.829 4.243 3.889M204.022 32.522c0.354-0.354 1.061 0.354 2.829 0.707-2.122-0.354-1.768 0-1.061 0.707-2.475-0.354-3.182-0.707-2.475-1.414 1.414 0.707 1.768 0.354 0.707 0M103.602 36.765c0-0.354 1.414-1.061 2.475-1.414-1.061 0.707-0.707 1.061 1.061 0.353 0 0.354-2.122 1.061-3.536 1.768 0.707-0.354 1.414-1.414 0-0.707M211.094 28.986c-1.061 0.354-4.95-1.768-8.84-2.475-2.122-0.707 8.486 1.768 8.84 2.475M2.475 203.66c2.122 8.84 0.707 8.486 0 0M2.829 150.621c0.354-1.414 0.707-5.304 1.06-4.95-1.061 8.486-2.829 12.376-3.182 18.74 1.061-5.657-0.354 3.182-0.707 5.304 0.354 2.829 0.354-1.768 1.061-1.06 0.707 1.061-1.414 15.912-0.707 7.779-0.707 7.425 0 15.558 1.414 17.679-1.768 11.315 7.072 36.773 8.84 42.077 0.354 0.354 0-1.768 0.707-0.353 0.707 4.597 3.889 7.779 4.95 12.729 1.061 1.414 5.304 9.193 6.011 10.962 1.414 2.829 2.122 2.475 3.536 5.303 4.243 8.133 10.961 15.912 17.326 23.337 20.508 24.044 51.978 43.845 86.984 50.918 35.006 7.425 71.779 2.122 100.419-11.669 1.768-1.061 1.414-1.414 3.536-2.122 9.901-3.182 21.923-13.436 28.641-17.326 3.182-3.536 11.669-9.547 12.73-13.082 6.011-4.95 12.022-13.083 15.204-18.387 1.768-2.829 3.182-2.829 3.889-4.597-0.354 0 5.657-7.425 7.426-11.668-0.707 0-1.768 2.122-1.768 0 12.729-24.398 19.801-57.282 15.911-79.912 0.707 27.934-6.365 59.05-19.801 78.851-6.011 12.729-18.387 26.519-29.701 36.42-1.768 1.768-3.536 3.889-5.658 5.304-6.718 5.657-14.144 10.254-21.922 14.497-18.387 10.254-38.895 19.094-62.94 19.447 41.37-3.536 78.497-24.398 99.006-49.856-15.558 15.204-22.276 21.215-39.602 30.055-1.414 2.475-13.083 7.425-20.862 9.547 4.597-2.122 14.144-5.657 17.326-8.486-25.812 12.376-54.453 19.448-81.326 15.558 10.254 0 24.751 0.354 38.541-2.121 2.122-0.707 3.182-1.414 5.658-1.768 26.873-6.011 52.685-19.094 71.072-37.481-10.608 9.547-26.519 20.862-36.774 24.398 9.547-5.304 26.873-15.558 32.53-23.337-11.315 11.315-32.53 22.63-45.966 27.58-2.122 0.354 1.414-1.414-2.122 0-4.243 1.061-2.475 1.061-3.536 1.768-16.265 4.597-35.006 8.486-50.563 7.072-2.829-0.354-3.889-1.061-6.365-1.061-2.829-0.354-5.304-0.354-8.486-0.354-12.376-1.414-25.812-6.365-35.713-10.607-5.304-2.475-10.608-4.243-15.912-7.426-4.243-2.475-7.779-5.304-11.314-8.132-13.436-9.901-24.751-19.801-35.36-33.945-19.094-26.519-28.994-59.757-27.58-92.641 1.414-32.884 14.497-65.061 35.359-88.752-1.061 1.061 1.414-2.475 3.536-4.596 0 0.707-0.354 1.768 2.122-0.707 2.122-2.475-0.707-0.707 0.353-2.122 21.923-24.044 60.111-43.492 99.36-44.199 1.414-1.061 3.889-2.475 6.718-1.768 0 0.354-1.768 0.354-1.768 0.354 3.889-0.354 7.425-0.354 9.193 0.353 0.354-0.354-1.414-0.707 0-0.707 2.475 0.707 3.182 0 4.597 0.707-1.061 0-2.122 0-2.829 0.354 8.84 0 14.497 2.122 23.337 2.829-4.597-1.061-5.657-1.061-9.193-2.122 3.889 0.707 5.657 1.414 7.425 1.061-0.707 0-0.354-1.061 0.354-0.707 7.072 1.768 7.779 2.475 15.204 4.95 0.707-0.707-3.182-1.061-4.243-2.122 7.072 2.475 13.436 4.243 17.68 7.072-1.414-1.061-5.657-2.475-8.84-3.889-0.354 0.354 1.061 0.707 1.414 1.414-3.536-1.768-8.486-3.536-13.436-4.243 4.243 1.061 7.072 2.475 8.84 3.182-3.889-0.707-8.84-3.182-14.498-4.243 9.193 2.829 26.519 9.193 37.127 14.851-3.889-2.475-8.486-4.243-10.961-5.657 2.122 0.354 4.597 1.768 4.597 1.06 2.475 1.061 5.657 3.536 7.425 3.89-3.182-2.122-9.547-5.304-11.668-6.365 26.519 12.022 50.21 32.177 65.414 57.989 1.414 2.475 3.536 8.133 5.304 8.84-0.354-1.768-1.768-2.829-3.182-5.657 0.707 0 0.707-1.061 0-2.122-1.414-1.768 0 1.414-1.415-0.354-6.365-11.669-14.144-21.923-26.165-33.237 6.718 6.365 1.768 1.768 0.353-0.354 9.193 8.133 19.801 21.923 24.398 28.995-0.707-1.061-1.061-1.768-0.707-1.768 8.486 14.497 13.79 27.58 19.094 46.32 0.354 0.354 0-1.414 0.707-0.353 3.536 14.851 4.597 27.227 4.243 38.541 2.829-19.094-3.536-48.796-14.851-72.133-1.414-2.829-1.414-0.707-2.829-3.889 0-1.061-1.061-3.182-1.768-4.597-14.144-23.337-31.47-39.956-51.978-53.038 1.414 0.707 4.243 2.829 4.244 2.475-38.188-25.105-82.387-28.641-118.807-20.862-2.475 1.061-3.536 2.122-6.365 3.536 5.304-1.768 8.486-2.122 13.437-3.183 1.061-1.061-4.597 0.354-2.122-0.707 0.354 0.354 4.95-0.707 6.011-0.353 0 0.354-1.414 0.707-1.768 1.06 11.669-2.475 23.691-2.829 33.945-2.121-6.011 0.354-16.972-0.707-20.508 1.061 3.536-0.354 8.486-0.707 11.668-0.354-4.243 0-12.022 0.354-15.558 0.707-0.354-0.354 5.657-1.061 1.768-1.06-1.768 0.354-4.597 0.354-5.657 1.414-30.409 2.829-60.111 18.74-80.973 37.481-4.243 3.536-9.193 7.425-12.375 11.314-7.779 8.84-12.729 17.68-18.387 25.459 3.536-7.425 11.315-18.74 20.508-28.287 9.193-9.547 19.094-17.68 24.398-21.923 0 1.414 8.486-5.304 11.669-7.425-2.122 1.768 1.414-0.707 2.121-0.354 11.315-6.718 20.508-9.193 30.763-13.083-2.475 0.707-4.597 1.414-4.951 1.061 2.475-0.707 3.889-1.414 3.536-1.768-9.901 2.829-25.459 9.547-37.834 16.972 22.276-15.204 50.564-24.398 78.497-24.751 27.934-0.707 55.16 6.365 76.729 17.68 14.497 6.365 28.287 18.033 39.249 29.348 3.182 2.829 0.707-0.707 5.304 4.243-1.414-0.707-2.475-1.414-0.707 0.707 2.829 3.182-0.707-2.475 3.889 3.182-0.354 0-1.768-1.768-1.768-1.061 12.376 10.961 21.923 30.762 27.58 43.846-1.414-5.304-4.95-12.729-7.779-18.033 8.486 15.558 11.315 24.751 14.851 38.541 1.414 1.061-0.707-4.95 0.707-2.121 0.354 2.122 0.707 8.84 2.122 9.9-1.061-6.718-2.829-14.851-4.243-16.265 1.061 0.707-1.768-8.133-3.536-10.254-0.707-5.657-5.657-15.558-9.901-22.984-15.204-29.702-42.431-54.099-72.839-67.536 0-0.707-1.768-1.414-2.476-2.121-30.055-12.729-66.122-16.265-100.773-8.133-35.006 8.486-67.889 28.641-91.227 57.636 1.061-3.536 9.901-10.254 10.255-13.083-10.254 10.961-21.215 25.459-28.641 41.016-7.779 15.558-12.022 31.47-13.79 43.138" fill="#454545" fill-rule="nonzero" stroke="none" stroke-width="1" stroke-linecap="butt" stroke-linejoin="miter" stroke-miterlimit="10" stroke-dasharray="" stroke-dashoffset="0" font-family="none" font-weight="none" font-size="none" text-anchor="none" style="mix-blend-mode: normal" data-fill-palette-color="tertiary"></path></g><g transform="matrix(1,0,0,1,48,151.27786205711902)"><svg viewBox="0 0 224 57.44427588576194" height="57.44427588576194" width="224"><g><svg viewBox="0 0 224 57.44427588576194" height="57.44427588576194" width="224"><g><svg viewBox="0 0 224 57.44427588576194" height="57.44427588576194" width="224"><g><svg viewBox="0 0 224 57.44427588576194" height="57.44427588576194" width="224"><g id="textblocktransform"><svg viewBox="0 0 224 57.44427588576194" height="57.44427588576194" width="224" id="textblock"><g><svg viewBox="0 0 224 30.982697519282887" height="30.982697519282887" width="224"><g transform="matrix(1,0,0,1,0,0)"><svg width="224" viewBox="2.859999895095825 -32.400001525878906 234.2100067138672 32.400001525878906" height="30.982697519282887" data-palette-color="#454545"><path d="M14.26-32.4L33.96 0 22.49 0 2.86-32.4 14.26-32.4ZM12.26 0L2.86 0 2.86-29.32 12.26-13.92 12.26 0ZM24.56-32.4L33.96-32.4 33.96-3.08 24.56-18.55 24.56-32.4ZM39.18 0L39.18-6.91 42.43-6.91 42.43-25.51 39.18-25.51 39.18-32.4 56.47-32.4 56.47-25.51 53.22-25.51 53.22-6.91 56.47-6.91 56.47 0 39.18 0ZM72.48 0L61.69 0 61.69-32.4 72.48-32.4 72.48 0ZM82.29-25.93L74.19-25.93 74.19-32.4 86.52-32.4 93.01-25.93 93.01-16.21 88.03-11.23 87.69-11.91 77.56-10.57 77.95-9.72 74.19-9.72 74.19-15.99 82.29-15.99 82.29-25.93ZM88.03-11.23L94.11 0 82.59 0 77.95-9.72 86.52-9.72 88.03-11.23ZM120.6 0L119.23-3.54 108.64-3.54 110.88-9.96 116.74-9.96 108.07-32.4 118.6-32.4 131.51 0 120.6 0ZM111.69-18.07L105.75 0 95.33 0 106.9-30.93 111.69-18.07ZM145.38 0L134.58 0 134.58-32.4 145.38-32.4 145.38 0ZM165.83-32.4L147.04-4.59 147.04-20.34 154.6-32.37 165.83-32.4ZM157.41-17.14L166.35 0 154.68 0 151.02-7.54 157.41-17.14ZM190.66 0L189.29-3.54 178.7-3.54 180.94-9.96 186.8-9.96 178.14-32.4 188.66-32.4 201.57 0 190.66 0ZM181.75-18.07L175.82 0 165.39 0 176.97-30.93 181.75-18.07ZM215.44 0L204.65 0 204.65-32.4 215.44-32.4 215.44 0ZM225.25-25.93L217.15-25.93 217.15-32.4 229.48-32.4 235.97-25.93 235.97-16.21 230.99-11.23 230.65-11.91 220.52-10.57 220.91-9.72 217.15-9.72 217.15-15.99 225.25-15.99 225.25-25.93ZM230.99-11.23L237.07 0 225.55 0 220.91-9.72 229.48-9.72 230.99-11.23Z" opacity="1" transform="matrix(1,0,0,1,0,0)" fill="#454545" class="wordmark-text-0" data-fill-palette-color="primary" id="text-0"></path></svg></g></svg></g><g transform="matrix(1,0,0,1,0,38.296968818845116)"><svg viewBox="0 0 224 19.147307066916824" height="19.147307066916824" width="224"><g transform="matrix(1,0,0,1,0,0)"><svg width="224" viewBox="2.25 -41.5 631.72998046875 54" height="19.147307066916824" data-palette-color="#454545"><path d="M13-18.15L13-7.95Q13-6.05 13.23-4.88 13.45-3.7 14.2-3.08 14.95-2.45 16.32-2.2 17.7-1.95 19.95-1.9L19.95-1.9 19.95 0 2.25 0 2.25-1.9Q4-1.95 5.08-2.2 6.15-2.45 6.75-3.05 7.35-3.65 7.55-4.75 7.75-5.85 7.75-7.6L7.75-7.6 7.75-30.9Q7.75-32.65 7.58-33.73 7.4-34.8 6.88-35.43 6.35-36.05 5.35-36.27 4.35-36.5 2.75-36.6L2.75-36.6 2.75-38.5 31.65-38.5 32.2-28.95 30.45-28.95Q30.15-31.1 29.5-32.48 28.85-33.85 27.68-34.65 26.5-35.45 24.7-35.77 22.9-36.1 20.2-36.1L20.2-36.1 13.85-36.1Q13-36.1 13-35.25L13-35.25 13-20.15Q15.4-20.15 17.13-20.43 18.85-20.7 19.98-21.4 21.1-22.1 21.7-23.3 22.3-24.5 22.45-26.4L22.45-26.4 24.2-26.4 24.2-11.75 22.45-11.75Q22.2-13.65 21.65-14.9 21.1-16.15 20.03-16.85 18.95-17.55 17.25-17.85 15.55-18.15 13-18.15L13-18.15ZM49.32-9.65L49.32-7.95Q49.32-5.9 49.42-4.7 49.52-3.5 49.94-2.88 50.37-2.25 51.17-2.05 51.97-1.85 53.42-1.75L53.42-1.75 53.42 0 40.12 0 40.12-1.75Q41.57-1.8 42.42-2.02 43.27-2.25 43.72-2.85 44.17-3.45 44.29-4.58 44.42-5.7 44.42-7.6L44.42-7.6 44.42-13.45Q44.42-16.85 44.34-18.75 44.27-20.65 43.84-21.55 43.42-22.45 42.52-22.63 41.62-22.8 40.02-22.8L40.02-22.8 40.02-24.55 48.77-26.45 49.47-20.25 49.67-20.25Q50.32-21.75 51.29-23 52.27-24.25 53.42-25.13 54.57-26 55.82-26.5 57.07-27 58.37-27L58.37-27Q59.97-27 60.89-26.23 61.82-25.45 61.82-24.15L61.82-24.15Q61.82-22.95 61.07-22.28 60.32-21.6 58.92-21.6L58.92-21.6Q58.12-21.6 57.57-21.8 57.02-22 56.59-22.23 56.17-22.45 55.79-22.65 55.42-22.85 54.97-22.85L54.97-22.85Q53.62-22.85 52.27-21.13 50.92-19.4 50.17-16.75L50.17-16.75Q49.77-15.3 49.54-13.48 49.32-11.65 49.32-9.65L49.32-9.65ZM82.93-27L82.93-27Q85.78-27 88.33-25.98 90.88-24.95 92.81-23.15 94.73-21.35 95.86-18.88 96.98-16.4 96.98-13.45L96.98-13.45Q96.98-10.4 95.86-7.85 94.73-5.3 92.81-3.45 90.88-1.6 88.33-0.55 85.78 0.5 82.93 0.5L82.93 0.5Q80.13 0.5 77.61-0.53 75.08-1.55 73.18-3.4 71.28-5.25 70.18-7.83 69.08-10.4 69.08-13.45L69.08-13.45Q69.08-16.4 70.18-18.9 71.28-21.4 73.18-23.2 75.08-25 77.61-26 80.13-27 82.93-27ZM82.93-24.6L82.93-24.6Q81.08-24.6 79.56-23.8 78.03-23 76.96-21.53 75.88-20.05 75.31-17.98 74.73-15.9 74.73-13.4L74.73-13.4Q74.73-10.8 75.31-8.7 75.88-6.6 76.96-5.13 78.03-3.65 79.53-2.85 81.03-2.05 82.93-2.05L82.93-2.05Q84.83-2.05 86.38-2.85 87.93-3.65 89.03-5.15 90.13-6.65 90.73-8.75 91.33-10.85 91.33-13.4L91.33-13.4Q91.33-15.9 90.73-17.95 90.13-20 89.03-21.48 87.93-22.95 86.38-23.78 84.83-24.6 82.93-24.6ZM115.35-14.55L115.35-7.85Q115.35-5.8 115.45-4.63 115.55-3.45 115.97-2.83 116.4-2.2 117.22-2 118.05-1.8 119.5-1.7L119.5-1.7 119.5 0 106.4 0 106.4-1.7Q107.8-1.8 108.62-2 109.45-2.2 109.9-2.8 110.35-3.4 110.47-4.5 110.6-5.6 110.6-7.5L110.6-7.5 110.6-14.15Q110.6-20.1 110.3-21.4L110.3-21.4Q110.15-22.05 109.92-22.48 109.7-22.9 109.25-23.13 108.8-23.35 108.1-23.43 107.4-23.5 106.3-23.5L106.3-23.5 106.3-25.1 114.3-27 114.9-22.05 115.1-22.05Q117-24.4 119.55-25.7 122.1-27 125.1-27L125.1-27Q127.4-27 129.3-26.25 131.2-25.5 132.2-24.2L132.2-24.2Q133.05-23.05 133.4-21.23 133.75-19.4 133.75-16.2L133.75-16.2 133.75-7.85Q133.75-5.8 133.87-4.63 134-3.45 134.4-2.83 134.8-2.2 135.62-2 136.45-1.8 137.8-1.7L137.8-1.7 137.8 0 124.85 0 124.85-1.7Q126.25-1.75 127.07-1.98 127.9-2.2 128.32-2.8 128.75-3.4 128.87-4.53 129-5.65 129-7.5L129-7.5 129-14.1Q129-16.95 128.7-18.9 128.4-20.85 127.72-22.05 127.05-23.25 125.95-23.78 124.85-24.3 123.3-24.3L123.3-24.3Q121.05-24.3 119.17-23.13 117.3-21.95 116.25-19.9L116.25-19.9Q116-19.4 115.82-18.95 115.65-18.5 115.55-17.9 115.45-17.3 115.4-16.53 115.35-15.75 115.35-14.55L115.35-14.55ZM149.16-23.35L146.16-23.35 146.16-25.2Q148.81-26.75 150.31-28.3 151.81-29.85 152.61-32L152.61-32 154.06-32 154.06-25.7 160.76-25.7 160.76-23.35 154.06-23.35 154.06-8.15Q154.06-6.4 154.24-5.2 154.41-4 154.81-3.28 155.21-2.55 155.86-2.25 156.51-1.95 157.51-1.95L157.51-1.95Q158.76-1.95 159.64-2.48 160.51-3 161.36-4.25L161.36-4.25 162.61-3.3Q161.91-1.45 160.19-0.48 158.46 0.5 155.91 0.5L155.91 0.5Q152.61 0.5 150.89-1.07 149.16-2.65 149.16-5.6L149.16-5.6 149.16-23.35ZM200.74-35.5L200.74-21.15Q203.44-21.15 205.27-21.48 207.09-21.8 208.17-22.5 209.24-23.2 209.72-24.3 210.19-25.4 210.19-26.9L210.19-26.9 211.94-26.9 211.94-13.25 210.19-13.25Q210.19-14.75 209.77-15.85 209.34-16.95 208.27-17.68 207.19-18.4 205.37-18.78 203.54-19.15 200.74-19.15L200.74-19.15 200.74-7.85Q200.74-6.2 201.14-5.13 201.54-4.05 202.52-3.38 203.49-2.7 205.09-2.43 206.69-2.15 209.04-2.15L209.04-2.15Q211.69-2.15 213.54-2.53 215.39-2.9 216.64-3.8 217.89-4.7 218.64-6.18 219.39-7.65 219.89-9.85L219.89-9.85 221.79-9.85 221.04 0 189.99 0 189.99-1.9Q191.74-1.95 192.82-2.2 193.89-2.45 194.49-3.05 195.09-3.65 195.29-4.75 195.49-5.85 195.49-7.6L195.49-7.6 195.49-30.9Q195.49-32.65 195.32-33.73 195.14-34.8 194.62-35.43 194.09-36.05 193.09-36.27 192.09-36.5 190.49-36.6L190.49-36.6 190.49-38.5 219.39-38.5 219.84-29.7 218.09-29.7Q217.79-31.7 217.12-32.98 216.44-34.25 215.27-35 214.09-35.75 212.29-36.05 210.49-36.35 207.94-36.35L207.94-36.35 201.59-36.35Q200.74-36.35 200.74-35.5L200.74-35.5ZM240.01-14.55L240.01-7.85Q240.01-5.8 240.11-4.63 240.21-3.45 240.64-2.83 241.06-2.2 241.89-2 242.71-1.8 244.16-1.7L244.16-1.7 244.16 0 231.06 0 231.06-1.7Q232.46-1.8 233.29-2 234.11-2.2 234.56-2.8 235.01-3.4 235.14-4.5 235.26-5.6 235.26-7.5L235.26-7.5 235.26-14.15Q235.26-20.1 234.96-21.4L234.96-21.4Q234.81-22.05 234.59-22.48 234.36-22.9 233.91-23.13 233.46-23.35 232.76-23.43 232.06-23.5 230.96-23.5L230.96-23.5 230.96-25.1 238.96-27 239.56-22.05 239.76-22.05Q241.66-24.4 244.21-25.7 246.76-27 249.76-27L249.76-27Q252.06-27 253.96-26.25 255.86-25.5 256.86-24.2L256.86-24.2Q257.71-23.05 258.06-21.23 258.41-19.4 258.41-16.2L258.41-16.2 258.41-7.85Q258.41-5.8 258.54-4.63 258.66-3.45 259.06-2.83 259.46-2.2 260.29-2 261.11-1.8 262.46-1.7L262.46-1.7 262.46 0 249.51 0 249.51-1.7Q250.91-1.75 251.74-1.98 252.56-2.2 252.99-2.8 253.41-3.4 253.54-4.53 253.66-5.65 253.66-7.5L253.66-7.5 253.66-14.1Q253.66-16.95 253.36-18.9 253.06-20.85 252.39-22.05 251.71-23.25 250.61-23.78 249.51-24.3 247.96-24.3L247.96-24.3Q245.71-24.3 243.84-23.13 241.96-21.95 240.91-19.9L240.91-19.9Q240.66-19.4 240.49-18.95 240.31-18.5 240.21-17.9 240.11-17.3 240.06-16.53 240.01-15.75 240.01-14.55L240.01-14.55ZM293.03 0.5L293.03-4.2 292.83-4.2Q291.03-1.65 289-0.58 286.98 0.5 284.23 0.5L284.23 0.5Q281.38 0.5 279-0.53 276.63-1.55 274.9-3.38 273.18-5.2 272.2-7.75 271.23-10.3 271.23-13.3L271.23-13.3Q271.23-16.25 272.2-18.78 273.18-21.3 274.9-23.13 276.63-24.95 279.03-25.98 281.43-27 284.23-27L284.23-27Q286.63-27 288.5-26.2 290.38-25.4 292.13-23.65L292.13-23.65 292.13-28.75Q292.13-31.6 292.05-33.5 291.98-35.4 291.83-36.1L291.83-36.1Q291.58-37.2 290.43-37.65 289.28-38.1 286.68-38.1L286.68-38.1 286.68-39.6 296.93-41.5 296.93-12.65Q296.93-9.2 296.98-6.98 297.03-4.75 297.28-3.8L297.28-3.8Q297.43-3.2 297.65-2.8 297.88-2.4 298.3-2.18 298.73-1.95 299.45-1.85 300.18-1.75 301.33-1.75L301.33-1.75 301.33-0.05 293.03 0.5ZM292.03-11.95L292.03-15.25Q292.03-17.85 291.75-19.2 291.48-20.55 290.68-21.55L290.68-21.55Q289.53-23.05 287.75-23.83 285.98-24.6 284.23-24.6L284.23-24.6Q280.63-24.6 278.75-21.63 276.88-18.65 276.88-13.55L276.88-13.55Q276.88-10.9 277.35-8.75 277.83-6.6 278.75-5.08 279.68-3.55 281.05-2.73 282.43-1.9 284.23-1.9L284.23-1.9Q285.13-1.9 286.05-2.1 286.98-2.3 287.85-2.73 288.73-3.15 289.48-3.73 290.23-4.3 290.73-5.05L290.73-5.05Q291.43-6.15 291.73-7.7 292.03-9.25 292.03-11.95L292.03-11.95ZM348.71 0L329.16 0 329.16-1.9Q331.06-1.95 332.23-2.18 333.41-2.4 334.06-3.03 334.71-3.65 334.93-4.73 335.16-5.8 335.16-7.6L335.16-7.6 335.16-30.9Q335.16-32.65 334.98-33.73 334.81-34.8 334.28-35.43 333.76-36.05 332.76-36.27 331.76-36.5 330.16-36.6L330.16-36.6 330.16-38.5 347.71-38.5Q352.21-38.5 356.03-37 359.86-35.5 362.63-32.85 365.41-30.2 366.96-26.55 368.51-22.9 368.51-18.6L368.51-18.6Q368.51-14.5 367.06-11.08 365.61-7.65 362.98-5.2 360.36-2.75 356.71-1.38 353.06 0 348.71 0L348.71 0ZM347.61-36.05L341.26-36.05Q340.41-36.05 340.41-35.2L340.41-35.2 340.41-8.15Q340.41-2.45 347.86-2.45L347.86-2.45Q354.71-2.45 358.36-6.53 362.01-10.6 362.01-18.5L362.01-18.5Q362.01-22.65 361.01-25.9 360.01-29.15 358.13-31.4 356.26-33.65 353.61-34.85 350.96-36.05 347.61-36.05L347.61-36.05ZM401.17-6.05L402.72-4.65Q398.47 0.5 392.17 0.5L392.17 0.5Q389.22 0.5 386.82-0.48 384.42-1.45 382.7-3.23 380.97-5 380.02-7.48 379.07-9.95 379.07-12.95L379.07-12.95Q379.07-16 380.07-18.6 381.07-21.2 382.9-23.05 384.72-24.9 387.25-25.95 389.77-27 392.77-27L392.77-27Q397.62-27 400.27-24.38 402.92-21.75 402.92-16.85L402.92-16.85Q402.92-16.15 402.65-16 402.37-15.85 401.37-15.85L401.37-15.85 384.92-15.85Q384.82-15.45 384.77-14.88 384.72-14.3 384.72-13.6L384.72-13.6Q384.72-11 385.35-8.88 385.97-6.75 387.15-5.25 388.32-3.75 389.95-2.93 391.57-2.1 393.57-2.1L393.57-2.1Q395.67-2.1 397.47-3.03 399.27-3.95 401.17-6.05L401.17-6.05ZM385.27-18.15L394.47-18.15Q395.47-18.15 396.07-18.2 396.67-18.25 396.97-18.4 397.27-18.55 397.37-18.82 397.47-19.1 397.47-19.55L397.47-19.55Q397.47-21.85 396-23.23 394.52-24.6 391.97-24.6L391.97-24.6Q386.57-24.6 385.27-18.15L385.27-18.15ZM423.44 0.55L414.99-20.3Q414.39-21.8 413.91-22.68 413.44-23.55 412.89-24 412.34-24.45 411.66-24.58 410.99-24.7 410.04-24.75L410.04-24.75 410.04-26.5 423.29-26.5 423.29-24.75Q422.29-24.7 421.64-24.65 420.99-24.6 420.61-24.43 420.24-24.25 420.09-23.93 419.94-23.6 419.94-23L419.94-23Q419.94-22.15 420.16-21.4 420.39-20.65 420.64-19.9L420.64-19.9 425.94-5.4 426.14-5.4 430.69-16.15Q431.74-18.65 432.19-20.15 432.64-21.65 432.64-22.8L432.64-22.8Q432.64-23.95 432.04-24.35 431.44-24.75 429.44-24.75L429.44-24.75 429.44-26.5 439.39-26.5 439.39-24.75Q438.59-24.75 437.94-24.35 437.29-23.95 436.79-23.35L436.79-23.35Q436.39-22.8 435.96-21.88 435.54-20.95 435.11-19.95 434.69-18.95 434.34-17.98 433.99-17 433.69-16.4L433.69-16.4 426.34 0.55 423.44 0.55ZM468.9-6.05L470.45-4.65Q466.2 0.5 459.9 0.5L459.9 0.5Q456.95 0.5 454.55-0.48 452.15-1.45 450.43-3.23 448.7-5 447.75-7.48 446.8-9.95 446.8-12.95L446.8-12.95Q446.8-16 447.8-18.6 448.8-21.2 450.63-23.05 452.45-24.9 454.98-25.95 457.5-27 460.5-27L460.5-27Q465.35-27 468-24.38 470.65-21.75 470.65-16.85L470.65-16.85Q470.65-16.15 470.38-16 470.1-15.85 469.1-15.85L469.1-15.85 452.65-15.85Q452.55-15.45 452.5-14.88 452.45-14.3 452.45-13.6L452.45-13.6Q452.45-11 453.08-8.88 453.7-6.75 454.88-5.25 456.05-3.75 457.68-2.93 459.3-2.1 461.3-2.1L461.3-2.1Q463.4-2.1 465.2-3.03 467-3.95 468.9-6.05L468.9-6.05ZM453-18.15L462.2-18.15Q463.2-18.15 463.8-18.2 464.4-18.25 464.7-18.4 465-18.55 465.1-18.82 465.2-19.1 465.2-19.55L465.2-19.55Q465.2-21.85 463.73-23.23 462.25-24.6 459.7-24.6L459.7-24.6Q454.3-24.6 453-18.15L453-18.15ZM488.62-41.5L488.62-7.8Q488.62-5.9 488.77-4.75 488.92-3.6 489.4-2.95 489.87-2.3 490.75-2.05 491.62-1.8 493.07-1.75L493.07-1.75 493.07 0 479.27 0 479.27-1.75Q480.77-1.8 481.67-2.08 482.57-2.35 483.1-2.95 483.62-3.55 483.8-4.63 483.97-5.7 483.97-7.45L483.97-7.45 483.97-29Q483.97-31.7 483.9-33.52 483.82-35.35 483.67-36L483.67-36Q483.42-37.15 482.5-37.55 481.57-37.95 479.17-37.95L479.17-37.95 479.17-39.65 488.62-41.5ZM515.84-27L515.84-27Q518.69-27 521.24-25.98 523.79-24.95 525.71-23.15 527.64-21.35 528.76-18.88 529.89-16.4 529.89-13.45L529.89-13.45Q529.89-10.4 528.76-7.85 527.64-5.3 525.71-3.45 523.79-1.6 521.24-0.55 518.69 0.5 515.84 0.5L515.84 0.5Q513.04 0.5 510.51-0.53 507.99-1.55 506.09-3.4 504.19-5.25 503.09-7.83 501.99-10.4 501.99-13.45L501.99-13.45Q501.99-16.4 503.09-18.9 504.19-21.4 506.09-23.2 507.99-25 510.51-26 513.04-27 515.84-27ZM515.84-24.6L515.84-24.6Q513.99-24.6 512.46-23.8 510.94-23 509.86-21.53 508.79-20.05 508.21-17.98 507.64-15.9 507.64-13.4L507.64-13.4Q507.64-10.8 508.21-8.7 508.79-6.6 509.86-5.13 510.94-3.65 512.44-2.85 513.94-2.05 515.84-2.05L515.84-2.05Q517.74-2.05 519.29-2.85 520.84-3.65 521.94-5.15 523.04-6.65 523.64-8.75 524.24-10.85 524.24-13.4L524.24-13.4Q524.24-15.9 523.64-17.95 523.04-20 521.94-21.48 520.84-22.95 519.29-23.78 517.74-24.6 515.84-24.6ZM547.95-26.8L547.95-22.9 548.15-22.9Q549.75-24.8 551.6-25.9 553.45-27 555.9-27L555.9-27Q558.75-27 561.13-25.98 563.5-24.95 565.25-23.1 567-21.25 567.98-18.73 568.95-16.2 568.95-13.2L568.95-13.2Q568.95-10.15 567.95-7.63 566.95-5.1 565.2-3.3 563.45-1.5 561.05-0.5 558.65 0.5 555.85 0.5L555.85 0.5Q553.55 0.5 551.68-0.28 549.8-1.05 548.15-2.8L548.15-2.8 548.15 4.5Q548.15 6.5 548.35 7.7 548.55 8.9 549.15 9.55 549.75 10.2 550.88 10.45 552 10.7 553.85 10.75L553.85 10.75 553.85 12.5 538.45 12.5 538.45 10.75Q539.95 10.7 540.88 10.45 541.8 10.2 542.33 9.55 542.85 8.9 543.05 7.78 543.25 6.65 543.25 4.85L543.25 4.85 543.25-13.85Q543.25-16.75 543.18-18.6 543.1-20.45 542.9-21.15L542.9-21.15Q542.65-22.35 541.75-22.78 540.85-23.2 538.35-23.2L538.35-23.2 538.35-24.9 547.95-26.8ZM549.45-21.45L549.45-21.45Q548.8-20.45 548.48-19.07 548.15-17.7 548.15-15.5L548.15-15.5 548.15-11.6Q548.15-10.25 548.23-9.28 548.3-8.3 548.45-7.6 548.6-6.9 548.85-6.35 549.1-5.8 549.5-5.3L549.5-5.3Q550.65-3.7 552.25-2.83 553.85-1.95 555.6-1.95L555.6-1.95Q559.05-1.95 561.18-4.85 563.3-7.75 563.3-13L563.3-13Q563.3-15.6 562.73-17.73 562.15-19.85 561.1-21.38 560.05-22.9 558.58-23.75 557.1-24.6 555.3-24.6L555.3-24.6Q553.5-24.6 551.98-23.78 550.45-22.95 549.45-21.45ZM601.12-6.05L602.67-4.65Q598.42 0.5 592.12 0.5L592.12 0.5Q589.17 0.5 586.77-0.48 584.37-1.45 582.64-3.23 580.92-5 579.97-7.48 579.02-9.95 579.02-12.95L579.02-12.95Q579.02-16 580.02-18.6 581.02-21.2 582.84-23.05 584.67-24.9 587.19-25.95 589.72-27 592.72-27L592.72-27Q597.57-27 600.22-24.38 602.87-21.75 602.87-16.85L602.87-16.85Q602.87-16.15 602.59-16 602.32-15.85 601.32-15.85L601.32-15.85 584.87-15.85Q584.77-15.45 584.72-14.88 584.67-14.3 584.67-13.6L584.67-13.6Q584.67-11 585.29-8.88 585.92-6.75 587.09-5.25 588.27-3.75 589.89-2.93 591.52-2.1 593.52-2.1L593.52-2.1Q595.62-2.1 597.42-3.03 599.22-3.95 601.12-6.05L601.12-6.05ZM585.22-18.15L594.42-18.15Q595.42-18.15 596.02-18.2 596.62-18.25 596.92-18.4 597.22-18.55 597.32-18.82 597.42-19.1 597.42-19.55L597.42-19.55Q597.42-21.85 595.94-23.23 594.47-24.6 591.92-24.6L591.92-24.6Q586.52-24.6 585.22-18.15L585.22-18.15ZM621.48-9.65L621.48-7.95Q621.48-5.9 621.58-4.7 621.68-3.5 622.11-2.88 622.53-2.25 623.33-2.05 624.13-1.85 625.58-1.75L625.58-1.75 625.58 0 612.28 0 612.28-1.75Q613.73-1.8 614.58-2.02 615.43-2.25 615.88-2.85 616.33-3.45 616.46-4.58 616.58-5.7 616.58-7.6L616.58-7.6 616.58-13.45Q616.58-16.85 616.51-18.75 616.43-20.65 616.01-21.55 615.58-22.45 614.68-22.63 613.78-22.8 612.18-22.8L612.18-22.8 612.18-24.55 620.93-26.45 621.63-20.25 621.83-20.25Q622.48-21.75 623.46-23 624.43-24.25 625.58-25.13 626.73-26 627.98-26.5 629.23-27 630.53-27L630.53-27Q632.13-27 633.06-26.23 633.98-25.45 633.98-24.15L633.98-24.15Q633.98-22.95 633.23-22.28 632.48-21.6 631.08-21.6L631.08-21.6Q630.28-21.6 629.73-21.8 629.18-22 628.76-22.23 628.33-22.45 627.96-22.65 627.58-22.85 627.13-22.85L627.13-22.85Q625.78-22.85 624.43-21.13 623.08-19.4 622.33-16.75L622.33-16.75Q621.93-15.3 621.71-13.48 621.48-11.65 621.48-9.65L621.48-9.65Z" opacity="1" transform="matrix(1,0,0,1,0,0)" fill="#454545" class="slogan-text-1" data-fill-palette-color="secondary" id="text-1"></path></svg></g></svg></g></svg></g></svg></g></svg></g></svg></g></svg></g></svg></g><defs></defs></svg><rect width="320" height="360" fill="none" stroke="none" visibility="hidden"></rect></g></svg></g></svg>