<?xml version="1.0" encoding="UTF-8"?>
<!DOCTYPE svg PUBLIC "-//W3C//DTD SVG 1.1//EN" "http://www.w3.org/Graphics/SVG/1.1/DTD/svg11.dtd">
<svg xmlns="http://www.w3.org/2000/svg" version="1.1" width="1000px" height="623px" style="shape-rendering:geometricPrecision; text-rendering:geometricPrecision; image-rendering:optimizeQuality; fill-rule:evenodd; clip-rule:evenodd" xmlns:xlink="http://www.w3.org/1999/xlink">
<g><path style="opacity:0.95" fill="#fe3f56" d="M 1.5,26.5 C 191.5,26.5 381.5,26.5 571.5,26.5C 571.5,77.5 571.5,128.5 571.5,179.5C 567.167,179.5 562.833,179.5 558.5,179.5C 558.5,132.833 558.5,86.1667 558.5,39.5C 377.167,39.5 195.833,39.5 14.5,39.5C 14.5,220.833 14.5,402.167 14.5,583.5C 195.833,583.5 377.167,583.5 558.5,583.5C 558.5,536.5 558.5,489.5 558.5,442.5C 562.833,442.5 567.167,442.5 571.5,442.5C 571.5,493.5 571.5,544.5 571.5,595.5C 381.5,595.5 191.5,595.5 1.5,595.5C 1.5,405.833 1.5,216.167 1.5,26.5 Z"/></g>
<g><path style="opacity:0.959" fill="#fe3f56" d="M 559.5,193.5 C 562.747,193.415 565.581,194.415 568,196.5C 568.167,216.842 568.667,237.175 569.5,257.5C 584.5,249 599.5,240.5 614.5,232C 622.117,231.205 624.784,234.538 622.5,242C 604.667,252.415 587.001,263.082 569.5,274C 586.167,285.667 602.833,297.333 619.5,309C 623.802,313.797 623.136,317.797 617.5,321C 615.087,321.484 612.754,321.15 610.5,320C 596.667,310.167 582.833,300.333 569,290.5C 568.667,300.5 568.333,310.5 568,320.5C 563.933,323.099 559.933,323.099 556,320.5C 555.333,279.167 555.333,237.833 556,196.5C 557.145,195.364 558.312,194.364 559.5,193.5 Z"/></g>
<g><path style="opacity:0.954" fill="#fe3f56" d="M 278.5,202.5 C 280.857,202.337 283.19,202.503 285.5,203C 286.667,203.5 287.5,204.333 288,205.5C 288.667,235.5 288.667,265.5 288,295.5C 287.195,322.978 277.528,326.978 259,307.5C 241.333,280.5 223.667,253.5 206,226.5C 205.667,256.833 205.333,287.167 205,317.5C 201,321.5 197,321.5 193,317.5C 192.53,290.333 192.03,263.166 191.5,236C 191.386,226.11 191.886,216.277 193,206.5C 197.603,202.778 202.436,202.611 207.5,206C 210,208.5 212.5,211 215,213.5C 227.395,232.233 239.395,251.233 251,270.5C 257.945,281.111 265.278,291.444 273,301.5C 274.28,269.863 274.947,238.197 275,206.5C 275.69,204.65 276.856,203.316 278.5,202.5 Z"/></g>
<g><path style="opacity:0.946" fill="#fe4056" d="M 325.5,206.5 C 336.989,205.155 341.823,210.155 340,221.5C 336.723,227.109 331.89,228.942 325.5,227C 316.272,220.178 316.272,213.345 325.5,206.5 Z"/></g>
<g><path style="opacity:0.941" fill="#fe3f56" d="M 366.5,233.5 C 369.807,233.063 372.807,233.73 375.5,235.5C 376.362,241.807 377.195,248.141 378,254.5C 384.501,238.206 396.334,232.372 413.5,237C 424.306,243.455 428.472,252.955 426,265.5C 423.016,274.51 416.683,279.177 407,279.5C 400.315,278.955 398.482,275.788 401.5,270C 413.57,269.033 417.404,262.867 413,251.5C 404.222,244.763 396.555,246.096 390,255.5C 385.757,262.225 383.091,269.559 382,277.5C 380.92,290.81 380.254,304.143 380,317.5C 378.208,323.525 374.374,325.025 368.5,322C 367.874,321.25 367.374,320.416 367,319.5C 367.119,293.269 365.952,267.103 363.5,241C 363.106,237.832 364.106,235.332 366.5,233.5 Z"/></g>
<g><path style="opacity:0.945" fill="#fe3f56" d="M 745.5,233.5 C 749.007,232.994 752.174,233.66 755,235.5C 755.972,242.135 756.639,248.801 757,255.5C 764.661,236.922 777.827,231.422 796.5,239C 806.358,248.29 808.525,259.124 803,271.5C 796.604,278.709 788.938,280.709 780,277.5C 779.333,275.167 779.333,272.833 780,270.5C 782.737,269.44 785.57,268.606 788.5,268C 796.316,261.59 796.316,254.923 788.5,248C 780.853,245.628 774.687,247.795 770,254.5C 765.974,260.24 763.307,266.574 762,273.5C 760.336,288.782 759.336,304.115 759,319.5C 757.741,322.217 755.574,323.55 752.5,323.5C 750.519,323.563 748.852,322.896 747.5,321.5C 746.77,318.891 746.27,316.224 746,313.5C 745.868,290.305 745.034,267.138 743.5,244C 743.247,240.203 743.914,236.703 745.5,233.5 Z"/></g>
<g><path style="opacity:0.941" fill="#fe4056" d="M 324.5,238.5 C 327.518,238.335 330.518,238.502 333.5,239C 334,239.5 334.5,240 335,240.5C 335.4,265.839 335.067,291.172 334,316.5C 330.262,321.691 325.929,322.358 321,318.5C 320.701,293.163 321.034,267.83 322,242.5C 322.662,241.016 323.496,239.683 324.5,238.5 Z"/></g>
<g><path style="opacity:0.946" fill="#fe3f56" d="M 474.5,239.5 C 480.842,239.334 487.175,239.5 493.5,240C 499.879,241.433 504.713,244.933 508,250.5C 508.143,240.663 512.476,237.996 521,242.5C 519.652,263.127 519.319,283.793 520,304.5C 520.273,306.329 521.107,307.829 522.5,309C 530.546,310.093 532.546,314.093 528.5,321C 519.816,323.339 513.649,320.505 510,312.5C 500.449,322.02 488.949,325.52 475.5,323C 457.684,319.513 447.85,308.68 446,290.5C 443.288,272.813 448.455,257.98 461.5,246C 465.647,243.26 469.98,241.093 474.5,239.5 Z M 479.5,250.5 C 492.283,249.136 500.783,254.469 505,266.5C 505.667,276.833 505.667,287.167 505,297.5C 502.883,304.825 498.049,309.325 490.5,311C 473.483,314.248 463.317,307.414 460,290.5C 457.648,277.402 460.814,265.902 469.5,256C 472.767,253.87 476.1,252.037 479.5,250.5 Z"/></g>
<g><path style="opacity:0.946" fill="#fe3f56" d="M 666.5,239.5 C 679.636,236.749 690.803,240.082 700,249.5C 700.814,240.454 705.147,238.12 713,242.5C 713.5,243.5 714,244.5 714.5,245.5C 711.628,265.047 710.795,284.713 712,304.5C 712.273,306.329 713.107,307.829 714.5,309C 722.546,310.093 724.546,314.093 720.5,321C 711.816,323.339 705.649,320.505 702,312.5C 692.449,322.02 680.949,325.52 667.5,323C 649.481,319.172 639.647,308.005 638,289.5C 634.915,265.307 644.415,248.641 666.5,239.5 Z M 671.5,250.5 C 683.863,249.255 692.363,254.255 697,265.5C 697.667,276.167 697.667,286.833 697,297.5C 694.883,304.825 690.049,309.325 682.5,311C 664.956,314.311 654.789,307.144 652,289.5C 649.034,271.43 655.534,258.43 671.5,250.5 Z"/></g>
<g><path style="opacity:0.966" fill="#fe3f56" d="M 193.5,336.5 C 397.167,336.333 600.834,336.5 804.5,337C 808.5,340.667 808.5,344.333 804.5,348C 600.833,348.667 397.167,348.667 193.5,348C 189.555,344.169 189.555,340.336 193.5,336.5 Z"/></g>
<g><path style="opacity:0.64" fill="#000000" d="M 222.5,374.5 C 225.247,374.187 227.914,374.52 230.5,375.5C 236.184,389.219 240.851,403.219 244.5,417.5C 242.143,417.663 239.81,417.497 237.5,417C 235.489,414.123 234.155,410.956 233.5,407.5C 228.5,406.167 223.5,406.167 218.5,407.5C 217.296,410.739 215.962,413.906 214.5,417C 212.19,417.497 209.857,417.663 207.5,417.5C 211.484,402.883 216.484,388.55 222.5,374.5 Z M 225.5,386.5 C 227.531,390.237 229.198,394.237 230.5,398.5C 227.572,399.484 224.572,399.817 221.5,399.5C 222.063,394.912 223.396,390.579 225.5,386.5 Z"/></g>
<g><path style="opacity:0.636" fill="#000000" d="M 306.5,374.5 C 309.777,374.216 312.943,374.549 316,375.5C 320.535,388.937 325.368,402.27 330.5,415.5C 330.291,416.086 329.957,416.586 329.5,417C 326.854,417.497 324.187,417.664 321.5,417.5C 321.99,409.724 318.49,406.058 311,406.5C 308.5,406.833 306,407.167 303.5,407.5C 302.839,410.992 301.506,414.159 299.5,417C 297.527,417.495 295.527,417.662 293.5,417.5C 293.336,414.813 293.503,412.146 294,409.5C 298.867,398.065 303.034,386.398 306.5,374.5 Z M 310.5,386.5 C 312.76,390.144 314.426,394.144 315.5,398.5C 312.572,399.484 309.572,399.817 306.5,399.5C 307.546,395.076 308.879,390.743 310.5,386.5 Z"/></g>
<g><path style="opacity:0.521" fill="#000000" d="M 391.5,374.5 C 394.247,374.187 396.914,374.52 399.5,375.5C 400.984,381.513 398.651,383.68 392.5,382C 391.565,379.619 391.232,377.119 391.5,374.5 Z"/></g>
<g><path style="opacity:0.514" fill="#000000" d="M 428.5,374.5 C 431.247,374.187 433.914,374.52 436.5,375.5C 438.031,381.466 435.697,383.633 429.5,382C 428.565,379.619 428.232,377.119 428.5,374.5 Z"/></g>
<g><path style="opacity:0.719" fill="#000000" d="M 522.5,374.5 C 524.833,374.5 527.167,374.5 529.5,374.5C 529.5,388.833 529.5,403.167 529.5,417.5C 527.167,417.5 524.833,417.5 522.5,417.5C 522.5,403.167 522.5,388.833 522.5,374.5 Z"/></g>
<g><path style="opacity:0.629" fill="#000000" d="M 533.5,374.5 C 544.167,374.5 554.833,374.5 565.5,374.5C 565.5,376.833 565.5,379.167 565.5,381.5C 561.5,381.5 557.5,381.5 553.5,381.5C 553.5,393.5 553.5,405.5 553.5,417.5C 550.833,417.5 548.167,417.5 545.5,417.5C 545.5,405.5 545.5,393.5 545.5,381.5C 541.5,381.5 537.5,381.5 533.5,381.5C 533.5,379.167 533.5,376.833 533.5,374.5 Z"/></g>
<g><path style="opacity:0.604" fill="#000000" d="M 584.5,374.5 C 592.174,374.334 599.841,374.5 607.5,375C 608.833,377 608.833,379 607.5,381C 602.511,381.499 597.511,381.666 592.5,381.5C 592.5,384.833 592.5,388.167 592.5,391.5C 596.846,391.334 601.179,391.501 605.5,392C 606.833,394 606.833,396 605.5,398C 601.179,398.499 596.846,398.666 592.5,398.5C 592.5,402.5 592.5,406.5 592.5,410.5C 597.833,410.5 603.167,410.5 608.5,410.5C 608.5,412.833 608.5,415.167 608.5,417.5C 600.248,417.816 592.081,417.482 584,416.5C 583.186,402.425 583.352,388.425 584.5,374.5 Z"/></g>
<g><path style="opacity:0.507" fill="#000000" d="M 678.5,374.5 C 685.107,372.749 687.607,375.082 686,381.5C 678.831,383.952 676.331,381.619 678.5,374.5 Z"/></g>
<g><path style="opacity:0.677" fill="#000000" d="M 258.5,385.5 C 262.182,385.335 265.848,385.501 269.5,386C 271.726,387.227 273.226,389.061 274,391.5C 274.5,400.16 274.666,408.827 274.5,417.5C 272.167,417.5 269.833,417.5 267.5,417.5C 267.666,410.825 267.5,404.158 267,397.5C 264.331,389.933 260.664,389.599 256,396.5C 255.5,403.492 255.334,410.492 255.5,417.5C 253.167,417.5 250.833,417.5 248.5,417.5C 248.5,407.167 248.5,396.833 248.5,386.5C 250.92,386.292 253.253,386.626 255.5,387.5C 256.739,387.058 257.739,386.391 258.5,385.5 Z"/></g>
<g><path style="opacity:0.608" fill="#000000" d="M 337.5,385.5 C 341.967,385.133 346.3,385.633 350.5,387C 351.423,389.041 351.756,391.208 351.5,393.5C 348.565,393.283 345.731,392.617 343,391.5C 338.052,392.398 337.552,394.231 341.5,397C 346.277,398.133 350.11,400.633 353,404.5C 354.122,413.387 350.122,418.053 341,418.5C 334.003,419.334 330.836,416.334 331.5,409.5C 334.821,409.464 337.988,410.131 341,411.5C 344.698,411.415 345.864,409.749 344.5,406.5C 341.09,405.089 337.757,403.589 334.5,402C 330.064,395.281 331.064,389.781 337.5,385.5 Z"/></g>
<g><path style="opacity:0.673" fill="#000000" d="M 369.5,385.5 C 381.576,383.907 387.242,389.24 386.5,401.5C 386.166,415.688 379.333,420.688 366,416.5C 365.501,420.821 365.334,425.154 365.5,429.5C 363.167,429.5 360.833,429.5 358.5,429.5C 358.5,415.167 358.5,400.833 358.5,386.5C 361.119,386.232 363.619,386.565 366,387.5C 367.302,386.915 368.469,386.249 369.5,385.5 Z M 371.5,391.5 C 376.691,392.629 379.024,395.963 378.5,401.5C 377.385,411.821 373.218,413.488 366,406.5C 363.958,399.873 365.792,394.873 371.5,391.5 Z"/></g>
<g><path style="opacity:0.656" fill="#000000" d="M 416.5,385.5 C 419.5,385.5 422.5,385.5 425.5,385.5C 425.5,387.833 425.5,390.167 425.5,392.5C 419.821,390.591 415.987,392.591 414,398.5C 413.5,404.825 413.334,411.158 413.5,417.5C 411.167,417.5 408.833,417.5 406.5,417.5C 406.5,407.167 406.5,396.833 406.5,386.5C 409.119,386.232 411.619,386.565 414,387.5C 414.995,386.934 415.828,386.267 416.5,385.5 Z"/></g>
<g><path style="opacity:0.653" fill="#000000" d="M 454.5,385.5 C 457.85,385.335 461.183,385.502 464.5,386C 466.667,386.833 468.167,388.333 469,390.5C 469.5,399.494 469.666,408.494 469.5,417.5C 467.167,417.5 464.833,417.5 462.5,417.5C 462.666,410.159 462.5,402.826 462,395.5C 458.966,390.463 455.633,390.463 452,395.5C 451.667,402.5 451.333,409.5 451,416.5C 448.619,417.435 446.119,417.768 443.5,417.5C 443.5,407.167 443.5,396.833 443.5,386.5C 446.119,386.232 448.619,386.565 451,387.5C 452.302,386.915 453.469,386.249 454.5,385.5 Z"/></g>
<g><path style="opacity:0.653" fill="#000000" d="M 482.5,385.5 C 489.167,385.833 495.833,386.167 502.5,386.5C 502.5,388.5 502.5,390.5 502.5,392.5C 499.513,392.422 498.847,393.589 500.5,396C 498.375,405.568 492.375,409.401 482.5,407.5C 483.025,408.192 483.692,408.692 484.5,409C 489.614,409.109 494.614,409.776 499.5,411C 504.94,419.498 502.94,425.498 493.5,429C 489.167,429.667 484.833,429.667 480.5,429C 473.162,425.475 471.829,420.309 476.5,413.5C 475.923,411.894 475.59,410.228 475.5,408.5C 476.155,402.18 476.655,395.847 477,389.5C 478.5,387.531 480.333,386.198 482.5,385.5 Z M 485.5,391.5 C 491,390.831 493.167,393.165 492,398.5C 489.287,402.432 486.621,402.432 484,398.5C 483.167,395.829 483.667,393.496 485.5,391.5 Z M 483.5,415.5 C 488.226,414.617 492.226,415.784 495.5,419C 490.784,424.356 486.118,424.523 481.5,419.5C 481.752,417.927 482.418,416.594 483.5,415.5 Z"/></g>
<g><path style="opacity:0.653" fill="#000000" d="M 625.5,385.5 C 628.85,385.335 632.183,385.502 635.5,386C 637.667,386.833 639.167,388.333 640,390.5C 640.5,399.494 640.666,408.494 640.5,417.5C 638.167,417.5 635.833,417.5 633.5,417.5C 633.666,410.159 633.5,402.826 633,395.5C 629.966,390.463 626.633,390.463 623,395.5C 622.667,402.5 622.333,409.5 622,416.5C 619.619,417.435 617.119,417.768 614.5,417.5C 614.5,407.167 614.5,396.833 614.5,386.5C 617.119,386.232 619.619,386.565 622,387.5C 623.302,386.915 624.469,386.249 625.5,385.5 Z"/></g>
<g><path style="opacity:0.654" fill="#000000" d="M 653.5,385.5 C 660.167,385.833 666.833,386.167 673.5,386.5C 673.5,388.5 673.5,390.5 673.5,392.5C 670.513,392.422 669.847,393.589 671.5,396C 669.375,405.568 663.375,409.401 653.5,407.5C 654.025,408.192 654.692,408.692 655.5,409C 660.614,409.109 665.614,409.776 670.5,411C 675.94,419.498 673.94,425.498 664.5,429C 660.167,429.667 655.833,429.667 651.5,429C 644.162,425.475 642.829,420.309 647.5,413.5C 646.923,411.894 646.59,410.228 646.5,408.5C 647.155,402.18 647.655,395.847 648,389.5C 649.5,387.531 651.333,386.198 653.5,385.5 Z M 656.5,391.5 C 662,390.831 664.167,393.165 663,398.5C 660.287,402.432 657.621,402.432 655,398.5C 654.167,395.829 654.667,393.496 656.5,391.5 Z M 654.5,415.5 C 659.226,414.617 663.226,415.784 666.5,419C 661.784,424.356 657.118,424.523 652.5,419.5C 652.752,417.927 653.418,416.594 654.5,415.5 Z"/></g>
<g><path style="opacity:0.625" fill="#000000" d="M 703.5,385.5 C 706.85,385.335 710.183,385.502 713.5,386C 716.428,387.26 718.261,389.427 719,392.5C 719.667,400.5 719.667,408.5 719,416.5C 716.619,417.435 714.119,417.768 711.5,417.5C 711.666,409.826 711.5,402.159 711,394.5C 707.465,390.649 704.132,390.982 701,395.5C 700.667,402.5 700.333,409.5 700,416.5C 697.619,417.435 695.119,417.768 692.5,417.5C 692.5,407.167 692.5,396.833 692.5,386.5C 695.119,386.232 697.619,386.565 700,387.5C 701.302,386.915 702.469,386.249 703.5,385.5 Z"/></g>
<g><path style="opacity:0.634" fill="#000000" d="M 733.5,385.5 C 747.635,383.302 753.968,389.302 752.5,403.5C 745.833,403.5 739.167,403.5 732.5,403.5C 732.544,407.09 734.211,409.59 737.5,411C 742.202,411.049 746.869,410.549 751.5,409.5C 752.809,414.689 750.809,417.522 745.5,418C 729.222,420.053 722.389,412.887 725,396.5C 725.853,391.164 728.686,387.497 733.5,385.5 Z M 736.5,391.5 C 741.076,390.787 744.076,392.62 745.5,397C 741.167,397.667 736.833,397.667 732.5,397C 733.488,394.833 734.821,393 736.5,391.5 Z"/></g>
<g><path style="opacity:0.637" fill="#000000" d="M 765.5,385.5 C 779.732,383.233 785.732,389.067 783.5,403C 776.833,403.333 770.167,403.667 763.5,404C 764.394,406.892 766.06,409.226 768.5,411C 773.257,411.291 777.924,410.958 782.5,410C 784.652,414.873 782.985,417.54 777.5,418C 760.354,420.181 753.521,412.681 757,395.5C 758.289,390.721 761.123,387.388 765.5,385.5 Z M 768.5,391.5 C 773.206,390.881 775.873,392.881 776.5,397.5C 772.445,397.824 768.445,397.491 764.5,396.5C 765.16,394.185 766.493,392.519 768.5,391.5 Z"/></g>
<g><path style="opacity:0.675" fill="#000000" d="M 799.5,385.5 C 802.5,385.5 805.5,385.5 808.5,385.5C 808.5,387.833 808.5,390.167 808.5,392.5C 803.487,390.629 799.987,392.296 798,397.5C 797.5,404.158 797.334,410.825 797.5,417.5C 795.167,417.5 792.833,417.5 790.5,417.5C 790.5,407.167 790.5,396.833 790.5,386.5C 793.713,386.81 796.713,386.477 799.5,385.5 Z"/></g>
<g><path style="opacity:0.697" fill="#000000" d="M 392.5,386.5 C 394.833,386.5 397.167,386.5 399.5,386.5C 399.666,396.506 399.5,406.506 399,416.5C 396.959,417.423 394.792,417.756 392.5,417.5C 392.5,407.167 392.5,396.833 392.5,386.5 Z"/></g>
<g><path style="opacity:0.608" fill="#000000" d="M 428.5,386.5 C 431.167,386.5 433.833,386.5 436.5,386.5C 436.5,396.833 436.5,407.167 436.5,417.5C 433.881,417.768 431.381,417.435 429,416.5C 428.5,406.506 428.334,396.506 428.5,386.5 Z"/></g>
<g><path style="opacity:0.694" fill="#000000" d="M 678.5,386.5 C 680.833,386.5 683.167,386.5 685.5,386.5C 685.5,396.833 685.5,407.167 685.5,417.5C 683.167,417.5 680.833,417.5 678.5,417.5C 678.5,407.167 678.5,396.833 678.5,386.5 Z"/></g>
</svg>
