<svg xmlns="http://www.w3.org/2000/svg" version="1.1" xmlns:xlink="http://www.w3.org/1999/xlink" xmlns:svgjs="http://svgjs.dev/svgjs" width="1000" height="623" viewBox="0 0 1000 623"><g transform="matrix(1,0,0,1,-0.6060606060606233,0.2522267206477409)"><svg viewBox="0 0 396 247" data-background-color="#282634" preserveAspectRatio="xMidYMid meet" height="623" width="1000" xmlns="http://www.w3.org/2000/svg" xmlns:xlink="http://www.w3.org/1999/xlink"><g id="tight-bounds" transform="matrix(1,0,0,1,0.2400000000000091,-0.09999999999999432)"><svg viewBox="0 0 395.52 247.2" height="247.2" width="395.52"><g><svg></svg></g><g><svg viewBox="0 0 395.52 247.2" height="247.2" width="395.52"><g transform="matrix(1,0,0,1,75.54432,77.25585435427797)"><svg viewBox="0 0 244.43135999999998 92.68829129144406" height="92.68829129144406" width="244.43135999999998"><g><svg viewBox="0 0 245.65351679999995 93.15173274790126" height="92.68829129144406" width="244.43135999999998"><g><svg viewBox="0 0 245.65351679999995 93.15173274790126" height="93.15173274790126" width="245.65351679999995"><g id="textblocktransform"><svg viewBox="0 0 245.65351679999995 93.15173274790126" height="93.15173274790126" width="245.65351679999995" id="textblock"><g><rect width="245.65351679999995" height="4.623960620441195" x="0" y="56.721277904485156" fill="#ff4057" opacity="1" stroke-width="0" stroke="transparent" fill-opacity="1" class="rect-o-0" data-fill-palette-color="primary" rx="1%" id="o-0" data-palette-color="#ff4057"></rect></g><g transform="matrix(1,0,0,1,0.6110783999999825,0)"><svg viewBox="0 0 244.43135999999998 51.27420387516961" height="51.27420387516961" width="244.43135999999998"><g transform="matrix(1,0,0,1,0,0)"><svg width="244.43135999999998" viewBox="4 -38.20000076293945 184.24000549316406 38.650001525878906" height="51.27420387516961" data-palette-color="#ff4057"><path d="M30.9-35.65Q31.9-35.65 32.4-35.13 32.9-34.6 32.9-33.65L32.9-33.65 32.85-15.4Q32.85-9.35 32.48-6.15 32.1-2.95 31.38-1.78 30.65-0.6 29.4-0.6L29.4-0.6Q27.9-0.6 26.25-2.18 24.6-3.75 22.55-6.78 20.5-9.8 16.6-15.95L16.6-15.95Q12.95-21.75 11.08-24.63 9.2-27.5 7.85-29.35L7.85-29.35Q7.85-25.95 7.9-23.9L7.9-23.9 7.95-17.25 8-2.1Q8-1.45 7.45-0.98 6.9-0.5 6.05-0.5L6.05-0.5Q5.25-0.5 4.67-0.98 4.1-1.45 4.1-2.1L4.1-2.1 4.1-17.3Q4.1-22.05 4.05-24.7L4.05-24.7 4-32.15Q4-33.75 4.5-34.52 5-35.3 6.25-35.3L6.25-35.3Q7.6-35.3 8.95-34.1 10.3-32.9 11.73-30.8 13.15-28.7 15.9-24.3L15.9-24.3Q15.5-25 18.55-20L18.55-20Q24.75-10.1 28.45-5.35L28.45-5.35Q28.95-9 28.95-15.45L28.95-15.45 28.95-33.9Q28.95-34.7 29.48-35.18 30-35.65 30.9-35.65L30.9-35.65ZM45.3-28.3Q44-28.3 43.1-29.18 42.2-30.05 42.2-31.4L42.2-31.4Q42.2-32.75 43.1-33.63 44-34.5 45.4-34.5L45.4-34.5Q46.75-34.5 47.62-33.65 48.5-32.8 48.5-31.45L48.5-31.45Q48.5-30.1 47.57-29.2 46.65-28.3 45.3-28.3L45.3-28.3ZM44.55-0.3Q43.65-0.3 43.12-0.75 42.6-1.2 42.6-1.95L42.6-1.95 43.1-23.2Q43.1-24.05 43.62-24.5 44.15-24.95 45.05-24.95L45.05-24.95Q45.95-24.95 46.47-24.5 47-24.05 47-23.15L47-23.15 46.5-1.95Q46.45-1.15 45.92-0.73 45.4-0.3 44.55-0.3L44.55-0.3ZM67.5-25.7Q70.7-25.7 72.5-23.68 74.3-21.65 74.3-18.75L74.3-18.75Q74.3-16 72.65-14.43 71-12.85 68.4-12.85L68.4-12.85Q67.4-12.85 66.97-13.15 66.55-13.45 66.55-14.25L66.55-14.25Q66.55-15.55 67.8-15.6L67.8-15.6Q71.05-15.9 71.05-18.8L71.05-18.8Q71.05-20.35 70.2-21.45 69.35-22.55 67.45-22.55L67.45-22.55Q65.45-22.55 63.97-20.85 62.5-19.15 61.65-16.63 60.8-14.1 60.65-11.65L60.65-11.65Q60.35-7.05 60.35-2.95L60.35-2.95Q60.35-0.9 59.97-0.25 59.6 0.4 58.5 0.4L58.5 0.4Q57.4 0.4 56.97-0.13 56.55-0.65 56.55-1.95L56.55-1.95 56.5-11.5Q56.5-14.8 56-20.2L56-20.2Q55.7-23.35 55.65-24.7L55.65-24.7Q55.6-25.5 56.1-25.93 56.6-26.35 57.5-26.35L57.5-26.35Q59.05-26.35 59.15-24.85L59.15-24.85Q59.45-21.7 59.5-18.7L59.5-18.7Q60.35-22 62.45-23.85 64.55-25.7 67.5-25.7L67.5-25.7ZM104.09-3.25Q104.79-3.15 105.14-2.85 105.49-2.55 105.49-1.75L105.49-1.75Q105.49-1 105.12-0.55 104.74-0.1 104.09-0.1L104.09-0.1Q102.04-0.1 101.07-0.75 100.09-1.4 99.39-3.2L99.39-3.2Q97.14 0.45 91.39 0.45L91.39 0.45Q87.34 0.45 84.84-1.35 82.34-3.15 81.27-5.93 80.19-8.7 80.19-11.8L80.19-11.8Q80.19-15.15 81.54-18.1 82.89-21.05 85.52-22.85 88.14-24.65 91.79-24.65L91.79-24.65Q94.29-24.65 96.14-23.65 97.99-22.65 99.04-20.85L99.04-20.85 99.24-22.5Q99.34-24.35 100.94-24.35L100.94-24.35Q101.94-24.35 102.47-23.88 102.99-23.4 102.89-22.75L102.89-22.75 102.74-21.5Q102.39-19.4 102.24-17.15L102.24-17.15Q102.09-15.25 102.09-12.05L102.09-12.05 102.09-8.6Q102.09-6.45 102.22-5.43 102.34-4.4 102.74-3.85 103.14-3.3 104.09-3.25L104.09-3.25ZM98.29-8.65Q98.34-11 98.34-14.7L98.34-14.7Q98.34-17.15 97.29-18.68 96.24-20.2 94.74-20.85 93.24-21.5 91.89-21.5L91.89-21.5Q89.24-21.5 87.47-20 85.69-18.5 84.87-16.25 84.04-14 84.04-11.8L84.04-11.8Q84.04-8.3 85.77-5.53 87.49-2.75 91.44-2.75L91.44-2.75Q94.39-2.75 96.32-4.28 98.24-5.8 98.29-8.65L98.29-8.65ZM115.04 0.25Q114.24 0.25 113.69-0.15 113.14-0.55 113.14-1.15L113.14-1.15 113.14-36.5Q113.14-37.3 113.64-37.75 114.14-38.2 115.04-38.2L115.04-38.2Q115.94-38.2 116.47-37.77 116.99-37.35 116.99-36.5L116.99-36.5 116.89-18.8 120.54-20.85Q128.09-25.1 130.54-26.6L130.54-26.6Q131.29-27.05 131.69-27.05L131.69-27.05Q132.39-27.05 132.92-26.33 133.44-25.6 133.44-24.75L133.44-24.75Q133.44-24.2 132.34-23.55L132.34-23.55 116.94-14.4 132.54-3.3Q133.04-2.9 133.04-2.2L133.04-2.2Q133.04-1.45 132.42-0.83 131.79-0.2 131.14-0.2L131.14-0.2Q130.54-0.2 129.64-0.75L129.64-0.75 124.49-4.35Q120.84-7.05 116.94-9.7L116.94-9.7 116.89-1.2Q116.89-0.55 116.37-0.15 115.84 0.25 115.04 0.25L115.04 0.25ZM161.79-3.25Q162.49-3.15 162.84-2.85 163.19-2.55 163.19-1.75L163.19-1.75Q163.19-1 162.81-0.55 162.44-0.1 161.79-0.1L161.79-0.1Q159.74-0.1 158.76-0.75 157.79-1.4 157.09-3.2L157.09-3.2Q154.84 0.45 149.09 0.45L149.09 0.45Q145.04 0.45 142.54-1.35 140.04-3.15 138.96-5.93 137.89-8.7 137.89-11.8L137.89-11.8Q137.89-15.15 139.24-18.1 140.59-21.05 143.21-22.85 145.84-24.65 149.49-24.65L149.49-24.65Q151.99-24.65 153.84-23.65 155.69-22.65 156.74-20.85L156.74-20.85 156.94-22.5Q157.04-24.35 158.64-24.35L158.64-24.35Q159.64-24.35 160.16-23.88 160.69-23.4 160.59-22.75L160.59-22.75 160.44-21.5Q160.09-19.4 159.94-17.15L159.94-17.15Q159.79-15.25 159.79-12.05L159.79-12.05 159.79-8.6Q159.79-6.45 159.91-5.43 160.04-4.4 160.44-3.85 160.84-3.3 161.79-3.25L161.79-3.25ZM155.99-8.65Q156.04-11 156.04-14.7L156.04-14.7Q156.04-17.15 154.99-18.68 153.94-20.2 152.44-20.85 150.94-21.5 149.59-21.5L149.59-21.5Q146.94-21.5 145.16-20 143.39-18.5 142.56-16.25 141.74-14 141.74-11.8L141.74-11.8Q141.74-8.3 143.46-5.53 145.19-2.75 149.14-2.75L149.14-2.75Q152.09-2.75 154.01-4.28 155.94-5.8 155.99-8.65L155.99-8.65ZM181.44-25.7Q184.64-25.7 186.44-23.68 188.24-21.65 188.24-18.75L188.24-18.75Q188.24-16 186.59-14.43 184.94-12.85 182.34-12.85L182.34-12.85Q181.34-12.85 180.91-13.15 180.49-13.45 180.49-14.25L180.49-14.25Q180.49-15.55 181.74-15.6L181.74-15.6Q184.99-15.9 184.99-18.8L184.99-18.8Q184.99-20.35 184.14-21.45 183.29-22.55 181.39-22.55L181.39-22.55Q179.39-22.55 177.91-20.85 176.44-19.15 175.59-16.63 174.74-14.1 174.59-11.65L174.59-11.65Q174.29-7.05 174.29-2.95L174.29-2.95Q174.29-0.9 173.91-0.25 173.54 0.4 172.44 0.4L172.44 0.4Q171.34 0.4 170.91-0.13 170.49-0.65 170.49-1.95L170.49-1.95 170.44-11.5Q170.44-14.8 169.94-20.2L169.94-20.2Q169.64-23.35 169.59-24.7L169.59-24.7Q169.54-25.5 170.04-25.93 170.54-26.35 171.44-26.35L171.44-26.35Q172.99-26.35 173.09-24.85L173.09-24.85Q173.39-21.7 173.44-18.7L173.44-18.7Q174.29-22 176.39-23.85 178.49-25.7 181.44-25.7L181.44-25.7Z" opacity="1" transform="matrix(1,0,0,1,0,0)" fill="#ff4057" class="wordmark-text-0" data-fill-palette-color="primary" id="text-0"></path></svg></g></svg></g><g transform="matrix(1,0,0,1,0,66.79231255424189)"><svg viewBox="0 0 244.43135999999998 26.359420193659375" height="26.359420193659375" width="244.43135999999998"><g transform="matrix(1,0,0,1,0,0)"><svg width="244.43135999999998" viewBox="1.2000000476837158 -41.939998626708984 496.65997314453125 53.55999755859375" height="26.359420193659375" data-palette-color="#dcdcdc"><path d="M1.2 0L13.43-37.35 19.12-37.35 32.18 0 27.76 0 24.05-10.96 9.01-10.96 5.49 0 1.2 0ZM10.13-14.45L22.88-14.45 16.28-34.06 15.53-31.27 10.13-14.45ZM37.03-2.39L38.79-5.76Q43.82-2.95 48.9-2.95L48.9-2.95Q53.12-2.95 53.85-5.96L53.85-5.96Q54.1-6.98 54.1-8.46 54.1-9.94 53.76-10.75 53.42-11.57 52.61-11.98 51.8-12.38 50.47-12.57 49.14-12.77 47.09-13.12 45.04-13.48 43.33-13.92 41.62-14.36 40.43-15.19L40.43-15.19Q37.89-16.97 37.99-21.19L37.99-21.19 37.99-21.8Q37.99-26.25 40.92-28.13L40.92-28.13Q43.75-29.98 50.27-29.39L50.27-29.39Q54.71-28.98 57.35-27.86L57.35-27.86 56.2-24.17Q53.27-25.42 49.17-25.98L49.17-25.98Q47.9-26.15 46.79-26.15 45.68-26.15 44.77-25.98 43.87-25.81 43.26-25.34L43.26-25.34Q42.09-24.39 42.04-21.8L42.04-21.8Q41.97-18.75 43.75-17.92L43.75-17.92Q45.46-17.11 47.8-16.81 50.14-16.5 51.63-16.27 53.12-16.04 54.34-15.65 55.56-15.26 56.44-14.4L56.44-14.4Q58.27-12.67 58.23-8.37L58.23-8.37Q58.1-0.88 51.98 0.17L51.98 0.17Q50.12 0.49 48.26 0.49 46.41 0.49 44.86 0.26 43.31 0.02 41.89-0.39L41.89-0.39Q39.21-1.15 37.03-2.39L37.03-2.39ZM71.8-1.73L71.8-1.73 71.8 11.11 67.74 11.11 67.74-29.05 71.04-29.05 71.5-26.05Q74.36-28.2 78.95-29.2L78.95-29.2Q80.61-29.54 82.56-29.54 84.52-29.54 86.02-29.03 87.52-28.52 88.5-27.6 89.47-26.68 90.01-25.42 90.55-24.15 90.82-22.66L90.82-22.66Q91.16-20.61 91.16-16.11L91.16-16.11 91.16-15.55Q91.16-9.84 90.77-7.64 90.38-5.44 89.74-4.02 89.11-2.59 87.98-1.59L87.98-1.59Q85.66 0.49 80.81 0.49 75.95 0.49 71.8-1.73ZM71.8-22.92L71.8-5.08Q75.95-3.17 80.51-3.17L80.51-3.17Q83.49-3.17 84.86-4.27L84.86-4.27Q86.71-5.79 86.93-11.33L86.93-11.33Q87.01-13.16 87.01-15.53L87.01-15.53 87.01-16.06Q87.01-21.68 86.03-23.58L86.03-23.58Q84.93-25.76 81.49-25.76L81.49-25.76 81.12-25.76Q77.53-25.76 73.68-23.97L73.68-23.97Q72.55-23.46 71.8-22.92L71.8-22.92ZM104.09-36.01L104.09-36.01Q102.46-36.01 101.99-36.47L101.99-36.47Q101.26-37.23 101.26-38.56 101.26-39.89 101.42-40.47 101.58-41.04 101.9-41.36L101.9-41.36Q102.48-41.94 103.69-41.94 104.9-41.94 105.42-41.82 105.95-41.7 106.29-41.36L106.29-41.36Q106.88-40.77 106.88-39.44 106.88-38.11 106.74-37.54 106.61-36.96 106.29-36.62L106.29-36.62Q105.68-36.01 104.09-36.01ZM102.17 0L102.12-29.05 106.12-29.05 106.12 0 102.17 0ZM128.29-25.51L128.29-25.51Q125.16-25.51 121.91-22.39L121.91-22.39 121.91 0 117.86 0 117.86-29.05 121.43-29.05 121.82-25.2Q122.96-26.98 124.29-27.98 125.62-28.98 126.48-29.2L126.48-29.2Q127.7-29.54 128.8-29.54 129.9-29.54 131.56-29.1L131.56-29.1 131.19-25.22Q129.95-25.51 128.29-25.51ZM141.61-36.01L141.61-36.01Q139.98-36.01 139.51-36.47L139.51-36.47Q138.78-37.23 138.78-38.56 138.78-39.89 138.94-40.47 139.1-41.04 139.42-41.36L139.42-41.36Q140-41.94 141.21-41.94 142.42-41.94 142.94-41.82 143.47-41.7 143.81-41.36L143.81-41.36Q144.4-40.77 144.4-39.44 144.4-38.11 144.26-37.54 144.13-36.96 143.81-36.62L143.81-36.62Q143.2-36.01 141.61-36.01ZM139.68 0L139.64-29.05 143.64-29.05 143.64 0 139.68 0ZM169.13-25.73L169.13-25.73Q164.36-25.73 159.43-22.92L159.43-22.92 159.43 0 155.38 0 155.38-29.05 158.94-29.05 159.34-26.05Q162-28.22 165.95-29.15L165.95-29.15Q167.56-29.54 169.74-29.54 171.91-29.54 173.57-29.04 175.23-28.54 176.21-27.44L176.21-27.44Q177.99-25.46 177.99-20.24L177.99-20.24 177.99 0 173.89 0 173.89-19.48Q173.89-23 173.2-24.01 172.52-25.02 171.58-25.38 170.64-25.73 169.13-25.73ZM207.38-27.05L207.38-27.05 207.77-29.05 211.29-29.05 211.31-0.54Q211.31 5.74 208.84 8.59L208.84 8.59Q206.21 11.62 199.93 11.62L199.93 11.62Q195.05 11.62 191.27 10.3L191.27 10.3Q190.31 9.99 189.8 9.72L189.8 9.72 191.07 6.27Q191.51 6.42 192.37 6.75 193.22 7.08 194.42 7.4L194.42 7.4Q197.44 8.2 199.97 8.2 202.5 8.2 203.86 7.69 205.23 7.18 205.99 6.1L205.99 6.1Q207.26 4.3 207.26-0.46L207.26-0.46 207.26-2.78Q202.59 0.49 197.39 0.49L197.39 0.49Q191.32 0.49 189.29-3.83L189.29-3.83Q188.12-6.27 187.92-10.01L187.92-10.01Q187.85-11.72 187.85-13.78 187.85-15.84 187.89-17.94 187.92-20.04 188.19-21.83 188.46-23.61 189.03-25.04 189.61-26.46 190.68-27.47L190.68-27.47Q192.9-29.54 197.53-29.54 202.16-29.54 207.38-27.05ZM207.26-6.08L207.26-23.68Q202.86-25.88 198.76-25.88L198.76-25.88Q195.78-25.88 194.83-25.39 193.88-24.9 193.38-24.12 192.88-23.34 192.56-21.97L192.56-21.97Q192-19.41 192-13.53L192-13.53 192-12.99Q192-7.57 193.34-5.4L193.34-5.4Q194.68-3.17 198.25-3.17L198.25-3.17 198.62-3.17Q201.98-3.17 205.5-5.03L205.5-5.03Q206.5-5.54 207.26-6.08L207.26-6.08ZM234.77 0L234.77-37.13Q234.77-37.13 238.43-37.4L238.43-37.4Q243.92-37.84 247.19-37.84 250.47-37.84 252.42-37.59 254.37-37.33 255.85-36.71 257.33-36.08 258.36-35.01 259.4-33.94 260.06-32.28L260.06-32.28Q261.31-29.17 261.31-23.05L261.31-23.05 261.31-19.26Q261.31-12.01 260.23-8.25L260.23-8.25Q258.99-3.91 255.76-2L255.76-2Q252.44 0 246.02 0L246.02 0 234.77 0ZM255.5-31.42Q254.62-32.81 252.96-33.52 251.3-34.23 247.85-34.23 244.41-34.23 238.92-33.81L238.92-33.81 238.92-3.49 246.68-3.49Q251.22-3.49 253.42-4.98L253.42-4.98Q255.57-6.42 256.3-9.94L256.3-9.94Q256.94-12.82 256.94-19.26L256.94-19.26 256.94-23.07Q256.94-29.15 255.5-31.42L255.5-31.42ZM293.46-5.03L294.65-1.54Q289.6 0.49 283.5 0.49L283.5 0.49Q279.96 0.49 277.49-0.24L277.49-0.24Q273.56-1.37 272.27-4.88L272.27-4.88Q271.07-8.18 271.07-14.65L271.07-14.65 271.07-15.89Q271.07-23.63 274.29-26.76L274.29-26.76Q277.2-29.54 283.98-29.54L283.98-29.54Q290.6-29.54 293.02-26.27L293.02-26.27Q294.19-24.68 294.57-22.42 294.95-20.17 294.95-18.12L294.95-18.12Q294.95-14.92 294.8-13.16L294.8-13.16Q291.36-13.01 288.62-13.01L288.62-13.01Q288.62-13.01 284.69-13.01L284.69-13.01Q278.54-13.01 275.22-13.55L275.22-13.55Q275.22-7.93 276.64-5.71L276.64-5.71Q278.37-3 283.54-3 288.72-3 293.46-5.03L293.46-5.03ZM275.22-16.41L290.82-16.41 290.82-18.75Q290.82-22.58 289.33-24.22L289.33-24.22Q287.67-26.05 283.59-26.05L283.59-26.05Q278.71-26.05 276.93-23.93L276.93-23.93Q275.22-21.9 275.22-16.41L275.22-16.41ZM311.72 0L301.75-29.05 306.12-29.05 313.74-5.35 314.47-2.93 315.16-5.35 322.43-29.05 326.85-29.05 317.04 0 311.72 0ZM355.88-5.03L357.07-1.54Q352.02 0.49 345.92 0.49L345.92 0.49Q342.38 0.49 339.91-0.24L339.91-0.24Q335.98-1.37 334.69-4.88L334.69-4.88Q333.49-8.18 333.49-14.65L333.49-14.65 333.49-15.89Q333.49-23.63 336.71-26.76L336.71-26.76Q339.62-29.54 346.41-29.54L346.41-29.54Q353.02-29.54 355.44-26.27L355.44-26.27Q356.61-24.68 356.99-22.42 357.37-20.17 357.37-18.12L357.37-18.12Q357.37-14.92 357.22-13.16L357.22-13.16Q353.78-13.01 351.04-13.01L351.04-13.01Q351.04-13.01 347.11-13.01L347.11-13.01Q340.96-13.01 337.64-13.55L337.64-13.55Q337.64-7.93 339.06-5.71L339.06-5.71Q340.79-3 345.97-3 351.14-3 355.88-5.03L355.88-5.03ZM337.64-16.41L353.24-16.41 353.24-18.75Q353.24-22.58 351.75-24.22L351.75-24.22Q350.09-26.05 346.01-26.05L346.01-26.05Q341.13-26.05 339.35-23.93L339.35-23.93Q337.64-21.9 337.64-16.41L337.64-16.41ZM368.55 0L368.5-41.5 372.53-41.85 372.53 0 368.55 0ZM383.44-14.45L383.44-14.45Q383.44-20 384-22.19 384.56-24.39 385.38-25.67 386.2-26.95 387.59-27.81L387.59-27.81Q390.37-29.54 395.81-29.54L395.81-29.54Q403.68-29.54 405.92-25.66L405.92-25.66Q407.26-23.32 407.46-19.04L407.46-19.04Q407.53-17.02 407.53-14.58 407.53-12.13 407.37-10.02 407.22-7.91 406.75-6.23 406.29-4.54 405.46-3.28 404.63-2.03 403.26-1.17L403.26-1.17Q400.58 0.49 395.42 0.49L395.42 0.49Q387.71 0.49 385.29-3.32L385.29-3.32Q383.8-5.69 383.56-9.96L383.56-9.96Q383.44-12.01 383.44-14.45ZM390.08-4.27Q390.96-3.61 392.29-3.28 393.62-2.95 395.92-2.95 398.23-2.95 399.81-3.61 401.38-4.27 402.17-5.73 402.97-7.18 403.18-9.5 403.38-11.82 403.38-14.89 403.38-17.97 403.2-20.02 403.02-22.07 402.28-23.41L402.28-23.41Q400.82-26.05 395.77-26.05L395.77-26.05Q390.42-26.05 388.81-23.41L388.81-23.41Q388-22.07 387.78-20 387.56-17.92 387.56-15.48 387.56-13.04 387.62-11.34 387.68-9.64 387.94-8.29 388.2-6.93 388.7-5.93 389.2-4.93 390.08-4.27ZM421.47-1.73L421.47-1.73 421.47 11.11 417.42 11.11 417.42-29.05 420.71-29.05 421.18-26.05Q424.03-28.2 428.62-29.2L428.62-29.2Q430.28-29.54 432.24-29.54 434.19-29.54 435.69-29.03 437.19-28.52 438.17-27.6 439.15-26.68 439.68-25.42 440.22-24.15 440.49-22.66L440.49-22.66Q440.83-20.61 440.83-16.11L440.83-16.11 440.83-15.55Q440.83-9.84 440.44-7.64 440.05-5.44 439.42-4.02 438.78-2.59 437.66-1.59L437.66-1.59Q435.34 0.49 430.48 0.49 425.62 0.49 421.47-1.73ZM421.47-22.92L421.47-5.08Q425.62-3.17 430.19-3.17L430.19-3.17Q433.17-3.17 434.53-4.27L434.53-4.27Q436.39-5.79 436.61-11.33L436.61-11.33Q436.68-13.16 436.68-15.53L436.68-15.53 436.68-16.06Q436.68-21.68 435.7-23.58L435.7-23.58Q434.61-25.76 431.16-25.76L431.16-25.76 430.8-25.76Q427.21-25.76 423.35-23.97L423.35-23.97Q422.23-23.46 421.47-22.92L421.47-22.92ZM472.42-5.03L473.62-1.54Q468.56 0.49 462.46 0.49L462.46 0.49Q458.92 0.49 456.45-0.24L456.45-0.24Q452.52-1.37 451.23-4.88L451.23-4.88Q450.03-8.18 450.03-14.65L450.03-14.65 450.03-15.89Q450.03-23.63 453.26-26.76L453.26-26.76Q456.16-29.54 462.95-29.54L462.95-29.54Q469.56-29.54 471.98-26.27L471.98-26.27Q473.15-24.68 473.53-22.42 473.91-20.17 473.91-18.12L473.91-18.12Q473.91-14.92 473.76-13.16L473.76-13.16Q470.32-13.01 467.59-13.01L467.59-13.01Q467.59-13.01 463.66-13.01L463.66-13.01Q457.5-13.01 454.18-13.55L454.18-13.55Q454.18-7.93 455.6-5.71L455.6-5.71Q457.33-3 462.51-3 467.68-3 472.42-5.03L472.42-5.03ZM454.18-16.41L469.78-16.41 469.78-18.75Q469.78-22.58 468.29-24.22L468.29-24.22Q466.63-26.05 462.56-26.05L462.56-26.05Q457.67-26.05 455.89-23.93L455.89-23.93Q454.18-21.9 454.18-16.41L454.18-16.41ZM494.59-25.51L494.59-25.51Q491.46-25.51 488.21-22.39L488.21-22.39 488.21 0 484.16 0 484.16-29.05 487.73-29.05 488.12-25.2Q489.26-26.98 490.59-27.98 491.93-28.98 492.78-29.2L492.78-29.2Q494-29.54 495.1-29.54 496.2-29.54 497.86-29.1L497.86-29.1 497.49-25.22Q496.25-25.51 494.59-25.51Z" opacity="1" transform="matrix(1,0,0,1,0,0)" fill="#dcdcdc" class="slogan-text-1" data-fill-palette-color="secondary" id="text-1"></path></svg></g></svg></g></svg></g></svg></g></svg></g></svg></g><path d="M226.281 71.256L226.281 10.913 0.908 10.913 0.908 236.287 226.281 236.287 226.281 175.944 221.68 175.944 221.68 231.686 5.509 231.686 5.509 15.514 221.68 15.514 221.68 71.256Z" fill="#ff4057" stroke="transparent" data-fill-palette-color="primary"></path></svg></g><defs></defs></svg><rect width="395.52" height="247.2" fill="none" stroke="none" visibility="hidden"></rect></g></svg></g></svg>